<svg width="261" height="229" viewBox="0 0 261 229" fill="none" xmlns="http://www.w3.org/2000/svg">
<path d="M257.358 24.8438V124.844V174.844C257.358 202.458 234.973 224.844 207.358 224.844H4.21387V59.3478C4.21387 40.2917 19.6619 24.8438 38.7179 24.8438V24.8438" stroke="#CE4E1A" stroke-width="7"/>
<path d="M37.0714 49.5019C40.0734 34.2678 41.1115 32.0946 42.5004 30.2725C44.33 28.8835 46.5031 27.838 61.7373 24.8435C46.5031 21.8415 44.33 20.8034 42.5079 19.4144C41.1189 17.5923 40.0734 15.4192 37.0789 0.185059C34.0769 15.4192 33.0388 17.5923 31.6498 19.4144C29.8277 20.8034 31.9275 20.8673 23.8601 26.2963C31.9275 31.7254 29.8277 28.8835 31.6498 30.2725C33.0314 32.0946 34.0769 34.2678 37.0714 49.5019Z" fill="#CE4E1A"/>
<path d="M101.683 141.589L97.4198 157.638C97.3351 158.078 97.1455 158.247 96.6212 158.247H88.7239C88.1996 158.247 88.1149 158.057 88.1996 157.448L103.47 104.027C103.724 103.059 103.909 102.284 103.994 99.6143C103.994 99.2554 104.164 99.0698 104.434 99.0698H115.715C116.074 99.0698 116.239 99.1747 116.324 99.6143L133.446 157.529C133.53 157.969 133.446 158.223 133.006 158.223H124.141C123.701 158.223 123.427 158.078 123.342 157.719L118.909 141.565H101.683V141.589ZM116.764 132.849C115.251 126.904 111.597 113.86 110.274 107.576H110.189C109.036 113.856 106.136 124.508 103.909 132.849H116.764ZM145.586 138.355C145.691 145.643 149.135 150.519 157.307 150.519C160.501 150.519 163.232 150.1 166.067 148.837C166.426 148.668 166.696 148.773 166.696 149.216V155.96C166.696 156.484 166.527 156.759 166.152 157.033C163.317 158.441 159.787 159.07 155.355 159.07C141.153 159.07 135.837 148.607 135.837 136.886C135.837 124.198 142.392 113.82 153.947 113.82C165.648 113.82 169.721 123.673 169.721 131.655C169.721 134.241 169.532 136.362 169.282 137.346C169.177 137.786 169.008 137.935 168.568 138.02C167.495 138.209 164.305 138.379 159.598 138.379H145.586V138.355ZM156.512 130.957C159.263 130.957 160.231 130.957 160.505 130.873C160.505 130.514 160.59 130.199 160.59 129.949C160.59 127.009 159.162 121.628 153.572 121.628C148.425 121.628 146.199 126.166 145.675 130.957H156.512Z" fill="#CE4E1A"/>
</svg>
