<svg width="261" height="229" viewBox="0 0 261 229" fill="none" xmlns="http://www.w3.org/2000/svg">
<path d="M257.359 24.8438V124.844V174.844C257.359 202.458 234.973 224.844 207.359 224.844H4.21411V74.8437C4.21411 47.2295 26.5999 24.8438 54.2141 24.8438H195.36" stroke="#CE4E1A" stroke-width="7"/>
<path d="M194.851 49.5019C197.853 34.2678 198.891 32.0946 200.28 30.2725C202.11 28.8835 204.283 27.838 219.517 24.8435C204.283 21.8415 202.11 20.8034 200.288 19.4144C198.899 17.5923 197.853 15.4192 194.859 0.185059C191.857 15.4192 190.819 17.5923 189.43 19.4144C187.608 20.8034 185.434 21.8489 170.2 24.8435C185.434 27.8455 187.608 28.8835 189.43 30.2725C190.811 32.0946 191.857 34.2678 194.851 49.5019Z" fill="#CE4E1A"/>
<path d="M102.289 142.601L97.4582 158.493C97.3623 158.95 97.1703 159.03 96.5762 159.03H87.6284C87.0115 159.03 86.9155 158.863 87.0115 158.262L104.313 105.514C104.624 104.559 104.811 103.712 104.907 101.079C104.907 100.725 105.122 100.562 105.433 100.562H118.192C118.598 100.562 118.809 100.645 118.905 101.079L138.304 158.346C138.422 158.779 138.304 159.03 137.806 159.03H127.761C127.235 159.03 126.952 158.927 126.856 158.573L121.811 142.597H102.27L102.289 142.601ZM119.284 133.981C117.57 128.117 113.549 115.272 112.05 109.055H111.931C110.647 115.248 107.407 125.754 104.912 133.981H119.284ZM146.703 104.5C146.703 101.083 149.418 99.0698 152.941 99.0698C156.656 99.0698 159.179 101.266 159.179 104.5C159.179 108 156.56 109.93 152.822 109.93C149.18 109.93 146.68 108.004 146.68 104.5H146.703ZM147.393 116.557C147.393 116.143 147.585 115.976 148.083 115.976H157.652C158.201 115.976 158.388 116.143 158.388 116.597V158.469C158.388 158.903 158.292 159.07 157.675 159.07H148.248C147.631 159.07 147.439 158.819 147.439 158.386V116.553L147.393 116.557Z" fill="#CE4E1A"/>
</svg>
