<svg viewBox="0 0 64 36" fill="none" xmlns="http://www.w3.org/2000/svg">
<path d="M58.0949 4.87165H39.7921V0.116211H58.0949V4.87165ZM62.6078 28.6489C61.4522 31.7328 57.3026 35.782 49.2703 35.782C41.2328 35.782 34.7222 31.6709 34.7222 22.2885C34.7222 12.9916 40.8014 8.21235 49.0141 8.21235C57.0726 8.21235 61.9934 12.4495 63.068 18.7361C63.272 19.9393 63.353 21.5609 63.3164 23.8245H42.3283C42.6682 31.4593 51.4353 31.6995 54.3245 28.6489H62.6078ZM42.5114 19.138H55.4933C55.2187 15.4596 52.523 13.8618 49.0167 13.8618C45.1836 13.8618 43.0631 15.6879 42.5114 19.138ZM17.4783 35.7535H0.571777V0.166143H18.7517C33.0697 0.358738 33.3417 13.1105 25.8636 16.5867C34.9131 19.5826 35.2164 35.7535 17.4783 35.7535ZM8.41584 14.3825H17.7869C24.3445 14.3825 25.3852 7.24937 16.9711 7.24937H8.41584V14.3825ZM17.2822 21.5157H8.41584V28.6869H17.1515C25.1394 28.6869 24.6504 21.5157 17.2822 21.5157Z" fill="#CE4E1A"/>
</svg>
