<svg width="262" height="229" viewBox="0 0 262 229" fill="none" xmlns="http://www.w3.org/2000/svg">
<path d="M257.503 24.8438V124.844V174.844C257.503 202.458 235.117 224.844 207.503 224.844H4.3584V74.8437C4.3584 47.2295 26.7442 24.8438 54.3584 24.8438H64.8624" stroke="#CE4E1A" stroke-width="7"/>
<path d="M63.7159 49.5024C66.718 34.2682 67.756 32.0951 69.145 30.273C70.9746 28.884 73.1477 27.8385 88.3818 24.844C73.1477 21.8419 70.9746 20.8039 69.1524 19.4149C67.7634 17.5928 66.718 15.4197 63.7234 0.185547C60.7214 15.4197 59.6834 17.5928 58.2944 19.4149C56.4722 20.8039 54.2991 21.8494 39.065 24.844C54.2991 27.846 56.4722 28.884 58.2944 30.273C59.6759 32.0951 60.7214 34.2682 63.7159 49.5024Z" fill="#CE4E1A"/>
<path fill-rule="evenodd" clip-rule="evenodd" d="M123.599 91.8438C116.869 91.8438 111.457 97.4895 111.457 104.406C111.457 108.611 113.459 112.345 116.537 114.625C114.951 115.813 113.665 117.356 112.783 119.131C111.901 120.905 111.447 122.862 111.457 124.844C111.457 129.051 113.459 132.783 116.537 135.063C114.951 136.251 113.665 137.794 112.783 139.569C111.901 141.343 111.447 143.3 111.457 145.282C111.457 152.198 116.869 157.844 123.599 157.844C130.325 157.844 135.74 152.198 135.74 145.282V134.661C137.867 136.434 140.547 137.406 143.316 137.409C150.045 137.406 155.457 131.76 155.457 124.844C155.468 122.862 155.015 120.905 154.133 119.13C153.251 117.356 151.965 115.813 150.378 114.625C151.964 113.437 153.25 111.893 154.132 110.119C155.014 108.344 155.468 106.387 155.457 104.406C155.457 97.4895 150.045 91.8438 143.316 91.8438H123.599ZM116.02 104.406C116.02 100.03 119.435 96.527 123.599 96.527H131.175V112.285H123.599C119.435 112.285 116.02 108.778 116.02 104.406ZM143.316 112.282H135.74V96.5243H143.316C147.482 96.5243 150.895 100.03 150.895 104.406C150.895 108.778 147.482 112.282 143.316 112.282ZM116.022 124.844C116.022 120.471 119.438 116.965 123.601 116.965H131.178V132.722H123.599C119.432 132.722 116.02 129.216 116.02 124.844H116.022ZM135.74 124.844C135.74 120.471 139.155 116.965 143.319 116.965C147.485 116.965 150.898 120.469 150.898 124.844C150.898 129.216 147.485 132.722 143.319 132.722C139.155 132.722 135.743 129.219 135.743 124.844H135.74ZM116.022 145.282C116.022 140.909 119.438 137.406 123.601 137.406H131.178V145.282C131.178 149.657 127.768 153.161 123.601 153.161C119.438 153.161 116.022 149.657 116.022 145.282Z" fill="#CE4E1A"/>
</svg>
