<svg viewBox="0 0 54 36" fill="none" xmlns="http://www.w3.org/2000/svg">
<path d="M53.1821 3.09496V32.8788C53.1821 34.569 51.7656 35.8571 49.9069 35.8571H46.6317V8.82685L26.9805 21.6637L7.32922 8.82685V35.8571H4.05402C2.19534 35.8571 0.778809 34.569 0.778809 32.8788V3.09496C0.778809 2.2491 1.12926 1.50451 1.71716 0.977337C2.02334 0.69875 2.388 0.478991 2.78945 0.331123C3.1909 0.183254 3.62094 0.110296 4.05402 0.116586H5.1463L26.9805 14.5126L48.8146 0.116586H49.9069C50.8371 0.116586 51.6559 0.435272 52.2438 0.977337C52.8317 1.50451 53.1821 2.2491 53.1821 3.09496Z" fill="#CE4E1A"/>
</svg>
