<svg width="261" height="229" viewBox="0 0 261 229" fill="none" xmlns="http://www.w3.org/2000/svg">
<path d="M256.701 24.8438V124.844V174.844C256.701 202.458 234.315 224.844 206.701 224.844H3.55664V74.8437C3.55664 47.2295 25.9424 24.8438 53.5566 24.8438H149.86" stroke="#CE4E1A" stroke-width="7"/>
<path d="M150.694 49.5019C153.696 34.2678 154.734 32.0946 156.123 30.2725C157.952 28.8835 160.125 27.838 175.36 24.8435C160.125 21.8415 157.952 20.8034 156.13 19.4144C154.741 17.5923 153.696 15.4192 150.701 0.185059C147.699 15.4192 146.661 17.5923 145.272 19.4144C143.45 20.8034 141.277 21.8489 126.043 24.8435C141.277 27.8455 143.45 28.8835 145.272 30.2725C146.654 32.0946 147.699 34.2678 150.694 49.5019Z" fill="#CE4E1A"/>
<path d="M106.882 157.533C106.882 158.053 106.802 158.223 106.193 158.223H97.9128C97.3925 158.223 97.2231 157.977 97.2231 157.533V99.7837C97.2231 99.2634 97.4692 99.0698 97.9128 99.0698H106.273C106.713 99.0698 106.882 99.2634 106.882 99.703V157.533ZM116.425 136.694C116.425 123.837 124.89 113.819 138.477 113.819C139.611 113.819 140.248 113.819 141.317 113.879V99.6183C141.313 99.5478 141.324 99.4773 141.349 99.4112C141.374 99.345 141.411 99.2845 141.46 99.2333C141.509 99.1821 141.567 99.1412 141.632 99.1131C141.697 99.085 141.766 99.0703 141.837 99.0698H150.577C151.04 99.0698 151.125 99.2634 151.125 99.5336V149.846C151.125 151.334 151.125 153.206 151.399 155.246C151.399 155.601 151.29 155.686 150.936 155.876C146.525 157.974 141.704 159.065 136.82 159.07C124.91 159.07 116.4 151.697 116.4 136.698L116.425 136.694ZM141.317 122.595C140.514 122.24 139.445 122.05 138.122 122.05C131.214 122.05 126.362 127.362 126.362 136.247C126.362 146.374 131.295 150.447 137.513 150.447C138.836 150.447 140.26 150.282 141.317 149.818V122.595Z" fill="#CE4E1A"/>
</svg>
