<svg viewBox="0 0 49 45" fill="none" xmlns="http://www.w3.org/2000/svg">
<path d="M24.377 12.2077C22.0801 12.2077 19.8347 12.8271 17.9249 13.9876C16.015 15.148 14.5265 16.7974 13.6475 18.7272C12.7685 20.657 12.5385 22.7805 12.9866 24.8291C13.4347 26.8777 14.5408 28.7595 16.165 30.2365C17.7892 31.7135 19.8585 32.7193 22.1113 33.1268C24.3641 33.5343 26.6992 33.3252 28.8213 32.5259C30.9434 31.7265 32.7572 30.3729 34.0333 28.6361C35.3094 26.8994 35.9906 24.8575 35.9906 22.7687C35.9906 19.9678 34.767 17.2815 32.589 15.301C30.4111 13.3204 27.4571 12.2077 24.377 12.2077ZM24.377 29.8094C22.8457 29.8094 21.3488 29.3965 20.0756 28.6229C18.8024 27.8492 17.81 26.7496 17.224 25.4631C16.638 24.1766 16.4847 22.7609 16.7834 21.3952C17.0822 20.0294 17.8196 18.7749 18.9023 17.7902C19.9851 16.8056 21.3647 16.135 22.8666 15.8633C24.3684 15.5917 25.9252 15.7311 27.3399 16.264C28.7546 16.7969 29.9638 17.6993 30.8146 18.8571C31.6653 20.015 32.1194 21.3762 32.1194 22.7687C32.113 24.6343 31.2952 26.4217 29.8447 27.7409C28.3941 29.06 26.4285 29.8036 24.377 29.8094ZM35.0228 0.766602H13.7313C10.1378 0.766602 6.69154 2.06472 4.15058 4.3754C1.60962 6.68607 0.182129 9.82002 0.182129 13.0878V32.4497C0.182129 35.7175 1.60962 38.8514 4.15058 41.1621C6.69154 43.4728 10.1378 44.7709 13.7313 44.7709H35.0228C38.6162 44.7709 42.0625 43.4728 44.6035 41.1621C47.1444 38.8514 48.5719 35.7175 48.5719 32.4497V13.0878C48.5719 9.82002 47.1444 6.68607 44.6035 4.3754C42.0625 2.06472 38.6162 0.766602 35.0228 0.766602ZM44.7007 32.4497C44.7007 33.6054 44.4504 34.7499 43.964 35.8176C43.4777 36.8854 42.7648 37.8556 41.8661 38.6728C40.9674 39.4901 39.9006 40.1383 38.7264 40.5806C37.5522 41.0229 36.2937 41.2505 35.0228 41.2505H13.7313C12.4603 41.2505 11.2019 41.0229 10.0277 40.5806C8.85349 40.1383 7.7866 39.4901 6.88792 38.6728C5.98924 37.8556 5.27637 36.8854 4.79 35.8176C4.30364 34.7499 4.05331 33.6054 4.05331 32.4497V13.0878C4.05331 10.7537 5.07295 8.51514 6.88792 6.86466C8.70289 5.21417 11.1645 4.28694 13.7313 4.28694H35.0228C36.2937 4.28694 37.5522 4.51459 38.7264 4.95687C39.9006 5.39915 40.9674 6.04742 41.8661 6.86466C42.7648 7.68189 43.4777 8.65209 43.964 9.71986C44.4504 10.7876 44.7007 11.9321 44.7007 13.0878V32.4497ZM39.8618 11.3276C39.8618 11.8498 39.6915 12.3603 39.3724 12.7945C39.0534 13.2287 38.6 13.5671 38.0694 13.7669C37.5389 13.9667 36.9552 14.019 36.3919 13.9172C35.8287 13.8153 35.3114 13.5638 34.9054 13.1946C34.4993 12.8253 34.2228 12.3549 34.1108 11.8427C33.9987 11.3306 34.0562 10.7997 34.276 10.3172C34.4957 9.8348 34.8679 9.42245 35.3453 9.13234C35.8228 8.84222 36.3841 8.68737 36.9584 8.68737C37.7284 8.68737 38.4669 8.96554 39.0114 9.46069C39.5559 9.95583 39.8618 10.6274 39.8618 11.3276Z" fill="#CE4E1A"/>
</svg>
