<svg viewBox="0 0 200 65" fill="none" xmlns="http://www.w3.org/2000/svg">
<path d="M0.924805 40.4375V0.317498H5.0048V40.4375H0.924805ZM7.0448 40.4375V0.317498H13.1648V40.4375H7.0448ZM15.2048 40.4375V0.317498H17.2448V40.4375H15.2048ZM12.0768 62.4015C10.0368 62.4015 8.38214 61.7215 7.11281 60.3615L8.0648 58.7975L8.13281 58.5935L8.33681 58.6615C8.33681 58.7068 8.35947 58.7975 8.40481 58.9335C8.40481 59.0242 8.45014 59.1375 8.5408 59.2735C8.58614 59.3642 8.67681 59.4548 8.8128 59.5455C9.76481 60.3615 10.9435 60.7695 12.3488 60.7695C13.2555 60.7695 14.0261 60.5202 14.6608 60.0215C15.2955 59.4775 15.6128 58.8428 15.6128 58.1175C15.6128 57.6188 15.4995 57.1882 15.2728 56.8255C15.0915 56.5082 14.7515 56.1908 14.2528 55.8735C13.7541 55.5562 12.9835 55.1708 11.9408 54.7175C10.3995 54.1282 9.28881 53.4482 8.60881 52.6775C7.97414 51.9068 7.65681 51.0455 7.65681 50.0935C7.65681 48.9148 8.08747 47.9628 8.94881 47.2375C9.81014 46.5122 10.9661 46.1495 12.4168 46.1495C13.2781 46.1495 14.0941 46.3308 14.8648 46.6935C15.5901 47.0562 16.2475 47.5322 16.8368 48.1215L15.6808 49.6855L15.5448 49.5495C15.5448 49.5042 15.5221 49.4362 15.4768 49.3455C15.4768 49.2095 15.4315 49.0962 15.3408 49.0055C15.2955 48.8695 15.2048 48.7562 15.0688 48.6655C14.7061 48.3028 14.2755 48.0308 13.7768 47.8495C13.3235 47.7135 12.7795 47.6455 12.1448 47.6455C11.3288 47.6455 10.6941 47.8722 10.2408 48.3255C9.74214 48.7788 9.4928 49.3228 9.4928 49.9575C9.4928 50.4562 9.58347 50.8868 9.76481 51.2495C9.99147 51.6122 10.3768 51.9522 10.9208 52.2695C11.4648 52.6322 12.2808 53.0175 13.3688 53.4255C14.8648 54.0602 15.9075 54.6948 16.4968 55.3295C17.0408 56.0095 17.3128 56.8482 17.3128 57.8455C17.3128 58.6162 17.1315 59.3415 16.7688 60.0215C16.3608 60.7015 15.7715 61.2682 15.0008 61.7215C14.1848 62.1748 13.2101 62.4015 12.0768 62.4015ZM20.9901 40.4375V0.317498H23.0301V40.4375H20.9901ZM29.1501 40.4375V0.317498H35.2701V40.4375H29.1501ZM37.3101 40.4375V0.317498H41.3901V40.4375H37.3101ZM32.2101 62.4015C30.3968 62.4015 29.0141 61.6988 28.0621 60.2935C27.0648 58.8882 26.5661 56.8935 26.5661 54.3095C26.5661 51.8162 27.0648 49.8442 28.0621 48.3935C29.0594 46.9882 30.4421 46.2855 32.2101 46.2855C33.9781 46.2855 35.3608 46.9882 36.3581 48.3935C37.3555 49.8442 37.8541 51.8162 37.8541 54.3095C37.8541 56.8935 37.3555 58.8882 36.3581 60.2935C35.4061 61.6988 34.0235 62.4015 32.2101 62.4015ZM32.2101 60.8375C33.4341 60.8375 34.3634 60.2935 34.9981 59.2055C35.6781 58.0722 36.0181 56.4402 36.0181 54.3095C36.0181 52.3148 35.6781 50.7282 34.9981 49.5495C34.3181 48.4162 33.3888 47.8495 32.2101 47.8495C31.0315 47.8495 30.1021 48.4162 29.4221 49.5495C28.7421 50.7282 28.4021 52.3148 28.4021 54.3095C28.4021 56.4402 28.7194 58.0722 29.3541 59.2055C30.0341 60.2935 30.9861 60.8375 32.2101 60.8375ZM41.0554 40.4375V0.317498H43.0954V40.4375H41.0554ZM49.2154 40.4375V0.317498H51.2554V40.4375H49.2154ZM53.2954 40.4375V0.317498H57.3754V40.4375H53.2954ZM47.1754 46.3535H51.6634C53.3861 46.3535 54.6781 46.6935 55.5394 47.3735C56.4461 48.0535 56.8994 49.0055 56.8994 50.2295C56.8994 51.0002 56.6954 51.7028 56.2874 52.3375C55.8341 52.9722 55.2448 53.4255 54.5194 53.6975C55.4261 54.0148 56.1514 54.5362 56.6954 55.2615C57.2394 56.0322 57.5114 56.8482 57.5114 57.7095C57.5114 59.0695 57.0128 60.1575 56.0154 60.9735C55.0634 61.7442 53.5901 62.1295 51.5954 62.1295H47.1754V46.3535ZM51.3914 52.8815C53.8848 52.8815 55.1314 52.0428 55.1314 50.3655C55.1314 49.6402 54.8368 49.0508 54.2474 48.5975C53.7034 48.0988 52.8421 47.8495 51.6634 47.8495H48.8754V52.8815H51.3914ZM51.9354 60.5655C54.3834 60.5655 55.6074 59.5682 55.6074 57.5735C55.6074 55.4428 54.2248 54.3775 51.4594 54.3775H48.8754V60.5655H51.9354ZM58.7407 40.4375V0.317498H60.7807V40.4375H58.7407ZM62.8207 40.4375V0.317498H64.8607V40.4375H62.8207ZM68.9407 40.4375V0.317498H73.0207V40.4375H68.9407ZM64.5207 62.6055H75.4007V64.1695H64.5207V62.6055ZM78.8061 40.4375V0.317498H80.8461V40.4375H78.8061ZM82.8861 40.4375V0.317498H86.9661V40.4375H82.8861ZM93.0861 40.4375V0.317498H95.1261V40.4375H93.0861ZM85.0621 46.3535H88.7341C90.0487 46.3535 91.0687 46.5348 91.7941 46.8975C92.5647 47.2602 93.2221 47.8042 93.7661 48.5295C94.8087 49.8895 95.3301 51.8162 95.3301 54.3095C95.2394 56.8935 94.6501 58.8428 93.5621 60.1575C92.4741 61.5175 90.7741 62.1748 88.4621 62.1295H85.0621V46.3535ZM88.3261 60.7695C91.8167 60.7695 93.5621 58.6615 93.5621 54.4455C93.5621 52.3148 93.1767 50.6828 92.4061 49.5495C91.5901 48.4162 90.3207 47.8495 88.5981 47.8495H86.7621V60.7695H88.3261ZM98.8714 40.4375V0.317498H100.911V40.4375H98.8714ZM107.031 40.4375V0.317498H111.111V40.4375H107.031ZM113.151 40.4375V0.317498H115.191V40.4375H113.151ZM105.263 46.3535H114.919V47.9175H106.895V53.0855H113.559V54.7175H106.895V60.5655H114.851V62.1295H105.263V46.3535ZM118.937 40.4375V0.317498H123.017V40.4375H118.937ZM125.057 40.4375V0.317498H131.177V40.4375H125.057ZM133.217 40.4375V0.317498H135.257V40.4375H133.217ZM130.089 62.4015C128.049 62.4015 126.394 61.7215 125.125 60.3615L126.077 58.7975L126.145 58.5935L126.349 58.6615C126.349 58.7068 126.371 58.7975 126.417 58.9335C126.417 59.0242 126.462 59.1375 126.553 59.2735C126.598 59.3642 126.689 59.4548 126.825 59.5455C127.777 60.3615 128.955 60.7695 130.361 60.7695C131.267 60.7695 132.038 60.5202 132.673 60.0215C133.307 59.4775 133.625 58.8428 133.625 58.1175C133.625 57.6188 133.511 57.1882 133.285 56.8255C133.103 56.5082 132.763 56.1908 132.265 55.8735C131.766 55.5562 130.995 55.1708 129.953 54.7175C128.411 54.1282 127.301 53.4482 126.621 52.6775C125.986 51.9068 125.669 51.0455 125.669 50.0935C125.669 48.9148 126.099 47.9628 126.961 47.2375C127.822 46.5122 128.978 46.1495 130.429 46.1495C131.29 46.1495 132.106 46.3308 132.877 46.6935C133.602 47.0562 134.259 47.5322 134.849 48.1215L133.693 49.6855L133.557 49.5495C133.557 49.5042 133.534 49.4362 133.489 49.3455C133.489 49.2095 133.443 49.0962 133.353 49.0055C133.307 48.8695 133.217 48.7562 133.081 48.6655C132.718 48.3028 132.287 48.0308 131.789 47.8495C131.335 47.7135 130.791 47.6455 130.157 47.6455C129.341 47.6455 128.706 47.8722 128.253 48.3255C127.754 48.7788 127.505 49.3228 127.505 49.9575C127.505 50.4562 127.595 50.8868 127.777 51.2495C128.003 51.6122 128.389 51.9522 128.933 52.2695C129.477 52.6322 130.293 53.0175 131.381 53.4255C132.877 54.0602 133.919 54.6948 134.509 55.3295C135.053 56.0095 135.325 56.8482 135.325 57.8455C135.325 58.6162 135.143 59.3415 134.781 60.0215C134.373 60.7015 133.783 61.2682 133.013 61.7215C132.197 62.1748 131.222 62.4015 130.089 62.4015ZM139.002 40.4375V0.317498H143.082V40.4375H139.002ZM149.202 40.4375V0.317498H151.242V40.4375H149.202ZM157.362 40.4375V0.317498H159.402V40.4375H157.362ZM145.938 60.6335H149.066V47.8495H146.142V46.3535H153.962V47.8495H150.834V60.6335H154.098V62.1295H145.938V60.6335ZM159.067 40.4375V0.317498H163.147V40.4375H159.067ZM165.187 40.4375V0.317498H167.227V40.4375H165.187ZM173.347 40.4375V0.317498H175.387V40.4375H173.347ZM170.967 62.4015C169.698 62.4015 168.61 62.0615 167.703 61.3815C166.797 60.7468 166.094 59.8175 165.595 58.5935C165.097 57.4148 164.847 56.0322 164.847 54.4455C164.847 52.3602 165.165 50.7055 165.799 49.4815C166.434 48.2575 167.205 47.3962 168.111 46.8975C169.018 46.4442 169.925 46.2175 170.831 46.2175C171.783 46.2175 172.69 46.4668 173.551 46.9655C174.458 47.4188 175.115 48.0535 175.523 48.8695L174.299 49.8215L174.095 50.0255L174.027 49.8895C174.027 49.7535 174.005 49.6175 173.959 49.4815C173.869 49.3908 173.733 49.2322 173.551 49.0055C173.143 48.5522 172.735 48.2348 172.327 48.0535C171.919 47.8722 171.421 47.7815 170.831 47.7815C169.607 47.7815 168.587 48.2575 167.771 49.2095C167.001 50.2068 166.615 51.8162 166.615 54.0375C166.615 56.2135 167.001 57.8908 167.771 59.0695C168.542 60.2482 169.607 60.8375 170.967 60.8375C171.466 60.8375 171.987 60.7468 172.531 60.5655C173.121 60.4295 173.597 60.2028 173.959 59.8855V56.1455H171.103V54.5815H175.591V60.7695C174.095 61.8575 172.554 62.4015 170.967 62.4015ZM179.133 40.4375V0.317498H181.173V40.4375H179.133ZM183.213 40.4375V0.317498H189.333V40.4375H183.213ZM195.453 40.4375V0.317498H199.533V40.4375H195.453ZM185.321 46.3535H187.021L193.617 58.0495V46.3535H195.589V46.5575C195.453 46.6482 195.385 46.7615 195.385 46.8975C195.339 46.9882 195.317 47.1922 195.317 47.5095V62.1295H193.957L186.953 49.7535V62.1295H185.321V46.3535Z" fill="#CE4E1A"/>
</svg>
