<svg width="261" height="229" viewBox="0 0 261 229" fill="none" xmlns="http://www.w3.org/2000/svg">
<path d="M256.701 24.8438V124.844V174.844C256.701 202.458 234.315 224.844 206.701 224.844H3.5564V74.8437C3.5564 47.2295 25.9422 24.8438 53.5564 24.8438H168.06" stroke="#CE4E1A" stroke-width="7"/>
<path d="M160.922 49.5019C163.924 34.2678 164.962 32.0946 166.351 30.2725C168.181 28.8835 170.354 27.838 185.588 24.8435C170.354 21.8415 168.181 20.8034 166.358 19.4144C164.97 17.5923 163.924 15.4192 160.929 0.185059C157.927 15.4192 156.889 17.5923 155.5 19.4144C153.678 20.8034 151.505 21.8489 136.271 24.8435C151.505 27.8455 153.678 28.8835 155.5 30.2725C156.882 32.0946 157.927 34.2678 160.922 49.5019Z" fill="#CE4E1A"/>
<path d="M160.843 98.7508H136.231V91.8438H131.879L96.3394 97.9988V151.704L131.457 157.844H136.231V150.169H159.262C160.574 150.108 162.032 150.238 163.153 149.425C164.043 148.051 163.827 146.332 163.904 144.782V101.759C164.08 99.9941 162.608 98.582 160.843 98.7508ZM118.848 127.392C117.106 128.282 115.111 128.159 113.215 128.098L113.208 137.1L108.641 136.716L108.649 112.12C112.816 112.319 117.866 110.47 121.32 113.593C124.627 117.607 123.752 124.99 118.848 127.392ZM160.237 146.547H136.231V141.727H154.649V138.658H136.231V134.821H154.649V131.751H136.238C136.238 131.751 136.231 128.742 136.223 127.238C139.262 128.182 142.723 128.159 145.44 126.333C148.379 124.591 149.914 121.268 150.168 117.952H140.068V107.929L136.231 108.705V102.373H160.237V146.547ZM141.602 106.325C146.936 106.571 151.426 111.08 151.71 116.398H141.602V106.325ZM113.208 116.271C114.719 116.202 116.592 115.926 117.613 117.346C118.488 118.85 118.442 120.83 117.712 122.38C116.838 123.961 114.858 123.808 113.33 123.992C113.169 121.421 113.185 118.85 113.208 116.271Z" fill="#CE4E1A"/>
</svg>
