<svg width="261" height="229" viewBox="0 0 261 229" fill="none" xmlns="http://www.w3.org/2000/svg">
<path d="M257.03 24.8438V124.844V174.844C257.03 202.458 234.644 224.844 207.03 224.844H3.88525V74.8437C3.88525 47.2295 26.271 24.8438 53.8853 24.8438H142.688" stroke="#CE4E1A" stroke-width="7"/>
<path d="M143.023 49.5019C146.025 34.2678 147.063 32.0946 148.452 30.2725C150.281 28.8835 152.454 27.838 167.688 24.8435C152.454 21.8415 150.281 20.8034 148.459 19.4144C147.07 17.5923 146.025 15.4192 143.03 0.185059C140.028 15.4192 138.99 17.5923 137.601 19.4144C135.779 20.8034 133.606 21.8489 118.372 24.8435C133.606 27.8455 135.779 28.8835 137.601 30.2725C138.983 32.0946 140.028 34.2678 143.023 49.5019Z" fill="#CE4E1A"/>
<path d="M89.5017 99.9719C89.5017 99.614 90.2579 99.3445 90.6963 99.3445C95.3031 99.1496 99.9137 99.0584 104.525 99.071C119.399 99.071 125.178 107.22 125.178 117.653C125.178 131.293 115.292 137.137 103.181 137.137C101.13 137.137 100.438 137.032 99.0142 137.032V157.646C99.0142 158.084 98.8452 158.273 98.4068 158.273H90.1091C89.6706 158.273 89.5017 158.105 89.5017 157.666V99.9719ZM99.0142 128.465C100.249 128.55 101.234 128.55 103.37 128.55C109.633 128.55 115.541 126.329 115.541 117.847C115.541 111.037 111.31 107.582 104.146 107.582C102.031 107.582 99.9996 107.666 99.0142 107.751V128.465ZM145.185 122.074C140.933 122.074 139.509 124.21 139.509 125.971C139.509 127.918 140.475 129.241 146.15 132.174C154.552 136.26 157.211 140.133 157.211 145.893C157.211 154.46 150.655 159.07 141.814 159.07C137.12 159.07 133.122 158.084 130.818 156.765C130.484 156.596 130.399 156.327 130.399 155.884V148.009C130.399 147.486 130.653 147.297 131.007 147.57C134.217 149.658 137.965 150.765 141.794 150.756C146.045 150.756 147.807 148.994 147.807 146.589C147.807 144.642 146.572 142.965 141.187 140.137C133.561 136.493 130.375 132.785 130.375 126.583C130.375 119.669 135.781 113.929 145.145 113.929C149.754 113.929 153 114.641 154.782 115.417C155.22 115.691 155.305 116.129 155.305 116.487V123.84C155.305 124.278 155.031 124.551 154.508 124.362C152.119 122.959 148.6 122.058 145.165 122.058L145.185 122.074Z" fill="#CE4E1A"/>
</svg>
