<svg viewBox="0 0 53 44" xmlns="http://www.w3.org/2000/svg">
<path d="M51.4448 1.25188C50.9078 0.83808 50.2575 0.564331 49.5631 0.45973C48.8687 0.355129 48.1561 0.423585 47.5011 0.657822L2.83727 16.6094C2.05387 16.8808 1.39031 17.3789 0.948748 18.0269C0.50719 18.6749 0.312123 19.437 0.393583 20.1957C0.466259 20.9542 0.807352 21.6707 1.36571 22.238C1.92408 22.8053 2.66961 23.1926 3.49053 23.342L14.8379 25.3882V38.2815C14.8375 38.979 15.065 39.6609 15.4914 40.2406C15.9179 40.8204 16.5241 41.2719 17.2332 41.5378C17.7025 41.7095 18.2033 41.7991 18.7091 41.8018C19.2176 41.8035 19.7213 41.7128 20.1907 41.5353C20.6602 41.3577 21.086 41.0968 21.4431 40.7677L27.7338 35.0692L37.2424 42.6819C37.9444 43.2449 38.8469 43.5576 39.7829 43.562C40.1945 43.5697 40.6042 43.5101 40.9926 43.386C41.6311 43.2023 42.2058 42.8702 42.6598 42.4225C43.1139 41.9749 43.4316 41.4273 43.5815 40.8337L52.6788 4.70622C52.8378 4.08282 52.8069 3.4318 52.5895 2.82316C52.3721 2.21452 51.9763 1.67129 51.4448 1.25188V1.25188ZM16.3138 22.0659L4.26477 19.8877L38.0408 7.80852L16.3138 22.0659ZM18.7091 38.2815V27.8525L24.8062 32.7369L18.7091 38.2815ZM39.8071 40.0417L19.8705 24.0901L48.5898 5.23427L39.8071 40.0417Z" fill="#CE4E1A"/>
</svg>
